<svg width="20" height="16" viewBox="0 0 20 16" fill="none" xmlns="http://www.w3.org/2000/svg">
<path d="M8.16074 12.068C8.16074 13.1726 7.75683 14.1041 6.949 14.8624C6.15765 15.6208 5.1932 16 4.05564 16C2.88511 16 1.91242 15.6208 1.13756 14.8624C0.379186 14.1041 0 13.1726 0 12.068C0 11.5404 0.0741886 10.9799 0.222566 10.3864C0.370943 9.79289 0.667697 9.02628 1.11283 8.08655L4.9459 0H8.65533L6.60278 8.95209C7.0644 9.28181 7.43534 9.7187 7.71561 10.2628C8.01236 10.7903 8.16074 11.3921 8.16074 12.068ZM19.1654 12.068C19.1654 13.1726 18.7615 14.1041 17.9536 14.8624C17.1458 15.6208 16.1814 16 15.0603 16C13.9227 16 12.9583 15.6208 12.1669 14.8624C11.3921 14.1041 11.0046 13.1726 11.0046 12.068C11.0046 11.5404 11.0788 10.9799 11.2272 10.3864C11.3756 9.79289 11.6806 9.02628 12.1422 8.08655L16 0H19.6847L17.6074 8.95209C18.0855 9.28181 18.4647 9.7187 18.745 10.2628C19.0252 10.7903 19.1654 11.3921 19.1654 12.068Z" fill="#ABB2BF"/>
</svg>
