<svg width="48" height="48" viewBox="0 0 48 48" fill="none" xmlns="http://www.w3.org/2000/svg">
<path d="M5.33333 0C2.39167 0 0 2.39167 0 5.33333V29.3333C0 32.275 2.39167 34.6667 5.33333 34.6667H20L19.1083 37.3333H13.3333C11.8583 37.3333 10.6667 38.525 10.6667 40C10.6667 41.475 11.8583 42.6667 13.3333 42.6667H34.6667C36.1417 42.6667 37.3333 41.475 37.3333 40C37.3333 38.525 36.1417 37.3333 34.6667 37.3333H28.8917L28 34.6667H42.6667C45.6083 34.6667 48 32.275 48 29.3333V5.33333C48 2.39167 45.6083 0 42.6667 0H5.33333ZM42.6667 5.33333V29.3333H5.33333V5.33333H42.6667Z" fill="#FF6B6B"/>
</svg>
