<svg width="1024" height="1024" viewBox="0 0 1024 1024" fill="none" xmlns="http://www.w3.org/2000/svg">
<path d="M146 710.999C114.52 717.675 79.9424 707.369 57.5698 684.215C29.1451 654.795 30.3391 628.302 30.3004 590.397C30.2581 548.87 25.178 505.011 58.5218 473.496C70.9505 461.749 94.1216 446.543 111.659 447.011C118.989 472.84 127.134 497.867 138.876 522.076C140.054 524.401 141.103 526.729 142.807 528.723C133.385 591.609 128.486 647.58 146 710.999Z" fill="url(#paint0_linear_529_450)"/>
<path d="M910.691 447.007C930.144 446.671 951.784 459.285 965.463 472.531C998.537 504.553 993.715 547.148 993.798 588.944C993.871 624.887 994.95 656.053 967.658 684.269C944.215 708.505 911.127 716.904 878.64 711.363C876.869 709.784 879.285 699.092 879.748 696.004C889.238 632.825 888.181 587.77 878.64 526.169C893.335 513.141 902.387 466.924 910.691 447.007Z" fill="url(#paint1_linear_529_450)"/>
<path d="M111.727 447.194C79.8176 283.902 147.292 127.716 303.816 56.0963C405.042 9.77926 531.176 13.7016 623.95 77.9994C657.796 101.457 640.529 101.908 681.726 105.602C756.665 112.32 832.417 159.248 873.03 221.837C918.663 292.158 928.286 366.026 910.854 447.194C902.524 467.022 893.444 513.03 878.705 526C872.727 499.182 855.704 440.968 834.264 421.716C831.35 419.098 801.135 408.848 793.944 405.413C737.272 378.335 699.006 337.096 664.216 285.856C631.713 351.919 559.216 407.116 486.312 417.497C458.704 421.428 430.271 420.596 402.462 420.606L248.397 420.535C237.649 420.52 226.684 419.771 216.065 421.835C195.482 419.918 178.71 434.595 169.413 451.666C157.583 469.3 152.319 494.393 146.041 514.462C144.404 516.492 141.417 521.296 138.923 522.026C127.19 497.892 119.052 472.943 111.727 447.194Z" fill="url(#paint2_linear_529_450)"/>
<path d="M216.603 422.178C227.206 420.111 238.155 420.861 248.888 420.875L402.727 420.946C430.495 420.936 458.887 421.77 486.455 417.833C559.252 407.437 631.643 352.16 664.098 286C698.837 337.314 737.047 378.613 793.636 405.732C800.817 409.172 830.988 419.436 833.898 422.058C855.306 441.338 872.305 499.638 878.274 526.495C887.83 587.907 888.889 632.825 879.384 695.811C878.92 698.889 876.5 709.549 878.274 711.123L877.442 711.45C874.73 714.353 872.847 729.093 871.461 733.926C841.442 838.539 761.79 924.118 662.786 968.066C456.46 1059.65 220.359 946.005 152.659 732.226C150.454 725.26 149.918 717.744 146.681 711.123C129.207 647.809 134.095 591.931 143.495 529.15C141.795 527.159 140.749 524.836 139.573 522.514C142.063 521.784 145.047 516.973 146.681 514.94C152.95 494.841 158.206 469.712 170.019 452.052C179.303 434.956 196.05 420.257 216.603 422.178Z" fill="url(#paint3_linear_529_450)"/>
<path d="M139 521.995C141.453 521.224 144.391 516.146 146 514C144.948 518.996 143.833 523.984 142.863 529C141.188 526.898 140.158 524.445 139 521.995Z" fill="#7394F7"/>
<path d="M170 452.608C179.315 435.021 196.121 419.899 216.744 421.875C223.33 422.274 230.607 419.824 237 421.744C229.476 421.87 221.96 421.882 214.436 421.875C209.225 428.81 199.858 430.147 193.117 435.091C188.881 438.2 174.888 449.086 171.711 453L170 452.608Z" fill="white"/>
<path d="M505.665 674.104C554.73 672.215 547.467 696.453 547.539 713.12C547.596 727.178 554.062 745.772 516.677 749.731C467.207 752.95 473.524 726.496 473.488 711.837C473.45 697.451 466.577 677.579 505.665 674.104Z" fill="url(#paint4_linear_529_450)"/>
<path d="M386.173 522.109C366.246 520.567 350.538 535.602 348.577 555.108C346.248 578.275 372.827 594.68 386.173 611.252C376.509 621.909 360.16 634.707 353.017 646.214C336.187 673.333 364.741 705.96 393.648 697.695C408.498 693.187 458.65 641.219 467.023 629.233C474.74 618.184 475.141 600.779 467.311 589.754C455.8 573.537 409.311 525.447 386.173 522.109Z" fill="url(#paint5_linear_529_450)"/>
<path d="M641.518 519.055C614.37 517.114 568.174 567.453 555.386 585.885C545.161 600.619 545.592 618.66 556.432 632.467C566.228 644.948 609.921 687.737 623.229 697.059C657.819 707.025 686.108 676.786 669.88 648.043C664.616 638.721 643.06 619.339 634.767 610.971C646.038 598.932 670.515 579.013 673.977 564.785C679.462 542.235 662.069 524.088 641.518 519.055Z" fill="url(#paint6_linear_529_450)"/>
<path d="M608.275 771.107C627.772 769.752 643.347 781.308 646.537 801.14C649.657 820.504 636.463 834.03 623.057 845.328C561.486 897.219 469.571 901.906 404.948 852.295C393.462 842.994 379.256 828.792 376.55 813.459C373.092 793.871 386.305 775.271 405.768 772.547C428.848 769.315 435.297 787.313 450.928 798.7C485.031 823.544 535.606 820.625 569.482 797.502C582.503 788.615 592.072 773.861 608.275 771.107Z" fill="#F79073"/>
<defs>
<linearGradient id="paint0_linear_529_450" x1="31.2682" y1="580.389" x2="143.114" y2="579.57" gradientUnits="userSpaceOnUse">
<stop stop-color="#FFFCF5"/>
<stop offset="1" stop-color="#EDC281"/>
</linearGradient>
<linearGradient id="paint1_linear_529_450" x1="993.452" y1="581.552" x2="878.483" y2="578.395" gradientUnits="userSpaceOnUse">
<stop stop-color="#FFFCF5"/>
<stop offset="1" stop-color="#EDC281"/>
</linearGradient>
<linearGradient id="paint2_linear_529_450" x1="326.175" y1="644.222" x2="696.83" y2="82.52" gradientUnits="userSpaceOnUse">
<stop stop-color="#994802"/>
<stop offset="1" stop-color="#E8A839"/>
</linearGradient>
<linearGradient id="paint3_linear_529_450" x1="509.795" y1="998.202" x2="511.287" y2="288.085" gradientUnits="userSpaceOnUse">
<stop stop-color="#FFDBA5"/>
<stop offset="1" stop-color="#FFFCF5"/>
</linearGradient>
<linearGradient id="paint4_linear_529_450" x1="506.982" y1="674.333" x2="508.528" y2="749.345" gradientUnits="userSpaceOnUse">
<stop stop-color="#F2E8CE"/>
<stop offset="1" stop-color="#FAA973"/>
</linearGradient>
<linearGradient id="paint5_linear_529_450" x1="414.029" y1="524.114" x2="404.956" y2="699.118" gradientUnits="userSpaceOnUse">
<stop stop-color="#F2E8CE"/>
<stop offset="1" stop-color="#FAA973"/>
</linearGradient>
<linearGradient id="paint6_linear_529_450" x1="618.299" y1="518.234" x2="607.635" y2="696.765" gradientUnits="userSpaceOnUse">
<stop stop-color="#F2E8CE"/>
<stop offset="1" stop-color="#FAA973"/>
</linearGradient>
</defs>
</svg>
